<svg width="511" height="359" viewBox="0 0 511 359" fill="none" xmlns="http://www.w3.org/2000/svg">
<path fill-rule="evenodd" clip-rule="evenodd" d="M255.5 0C236.155 0 229.896 11.3231 228.396 14.9183C83.4004 19.5176 54 60.5 54 60.5H457C457 60.5 427.6 19.5176 282.604 14.9183C281.104 11.3231 274.845 0 255.5 0ZM464 106V87H47V106H17.5C7.83502 106 0 113.835 0 123.5V158H0.0223083C0.545105 169.686 10.1849 179 22 179C34.1503 179 44 169.15 44 157C44 150.696 41.3484 145.011 37.0998 141H47V329C47 345.569 60.4315 359 77 359H434C450.569 359 464 345.569 464 329V141H473.9C469.652 145.011 467 150.696 467 157C467 169.15 476.85 179 489 179C500.815 179 510.455 169.686 510.978 158H511V123.5C511 113.835 503.165 106 493.5 106H464Z" fill="#556B2F"/>
</svg>
